mtllib omnira:models/block/crystal_column.mtl
usemtl crystal
v 0.8125 0.0 0.625
vt 0 0
v 0.8125 1.0 0.625
vt 0 1.0
v 0.625 1.0 0.8125
vt 0.2651650429449553 1.0
v 0.625 0.0 0.8125
vt 0.2651650429449553 0
f 1/1 2/2 3/3 4/4
v 0.625 0.0 0.8125
vt 0 0
v 0.625 1.0 0.8125
vt 0 1.0
v 0.375 1.0 0.8125
vt 0.25 1.0
v 0.375 0.0 0.8125
vt 0.25 0
f 5/5 6/6 7/7 8/8
v 0.375 0.0 0.8125
vt 0 0
v 0.375 1.0 0.8125
vt 0 1.0
v 0.1875 1.0 0.625
vt 0.2651650429449553 1.0
v 0.1875 0.0 0.625
vt 0.2651650429449553 0
f 9/9 10/10 11/11 12/12
v 0.1875 0.0 0.625
vt 0 0
v 0.1875 1.0 0.625
vt 0 1.0
v 0.1875 1.0 0.375
vt 0.25 1.0
v 0.1875 0.0 0.375
vt 0.25 0
f 13/13 14/14 15/15 16/16
v 0.1875 0.0 0.375
vt 0 0
v 0.1875 1.0 0.375
vt 0 1.0
v 0.375 1.0 0.1875
vt 0.2651650429449553 1.0
v 0.375 0.0 0.1875
vt 0.2651650429449553 0
f 17/17 18/18 19/19 20/20
v 0.375 0.0 0.1875
vt 0 0
v 0.375 1.0 0.1875
vt 0 1.0
v 0.625 1.0 0.1875
vt 0.25 1.0
v 0.625 0.0 0.1875
vt 0.25 0
f 21/21 22/22 23/23 24/24
v 0.625 0.0 0.1875
vt 0 0
v 0.625 1.0 0.1875
vt 0 1.0
v 0.8125 1.0 0.375
vt 0.2651650429449553 1.0
v 0.8125 0.0 0.375
vt 0.2651650429449553 0
f 25/25 26/26 27/27 28/28
v 0.8125 0.0 0.375
vt 0 0
v 0.8125 1.0 0.375
vt 0 1.0
v 0.8125 1.0 0.625
vt 0.25 1.0
v 0.8125 0.0 0.625
vt 0.25 0
f 29/29 30/30 31/31 32/32
v 0.1875 0.0 0.375
vt 0.1875 0.375
v 0.375 0.0 0.1875
vt 0.375 0.1875
v 0.625 0.0 0.1875
vt 0.625 0.1875
v 0.8125 0.0 0.375
vt 0.8125 0.375
f 33/33 34/34 35/35 36/36
v 0.1875 0.0 0.625
vt 0.1875 0.625
v 0.1875 0.0 0.375
vt 0.1875 0.375
v 0.8125 0.0 0.375
vt 0.8125 0.375
v 0.8125 0.0 0.625
vt 0.8125 0.625
f 37/37 38/38 39/39 40/40
v 0.375 0.0 0.8125
vt 0.375 0.8125
v 0.1875 0.0 0.625
vt 0.1875 0.625
v 0.8125 0.0 0.625
vt 0.8125 0.625
v 0.625 0.0 0.8125
vt 0.625 0.8125
f 41/41 42/42 43/43 44/44
v 0.8125 1.0 0.375
vt 0.8125 0.375
v 0.625 1.0 0.1875
vt 0.625 0.1875
v 0.375 1.0 0.1875
vt 0.375 0.1875
v 0.1875 1.0 0.375
vt 0.1875 0.375
f 45/45 46/46 47/47 48/48
v 0.8125 1.0 0.625
vt 0.8125 0.625
v 0.8125 1.0 0.375
vt 0.8125 0.375
v 0.1875 1.0 0.375
vt 0.1875 0.375
v 0.1875 1.0 0.625
vt 0.1875 0.625
f 49/49 50/50 51/51 52/52
v 0.625 1.0 0.8125
vt 0.625 0.8125
v 0.8125 1.0 0.625
vt 0.8125 0.625
v 0.1875 1.0 0.625
vt 0.1875 0.625
v 0.375 1.0 0.8125
vt 0.375 0.8125
f 53/53 54/54 55/55 56/56
